<svg xmlns="http://www.w3.org/2000/svg" xmlns:xlink="http://www.w3.org/1999/xlink" id="body_1" preserveAspectRatio="xMinYMin meet" viewBox="0 0 816 1056"><defs><clipPath id="1"><path id="" clip-rule="evenodd" transform="matrix(1 0 0 1 0 0)" d="M0 792L0 0L0 0L612 0L612 0L612 792L612 792L0 792z" /></clipPath><clipPath id="2"><path id="" clip-rule="evenodd" transform="matrix(1 0 0 1 0 0)" d="M9.12E-06 792L612 792L612 792L612 0L612 0L9.12E-06 0z" /></clipPath><clipPath id="3"><path id="" clip-rule="evenodd" transform="matrix(1 0 0 1 0 0)" d="M9.12E-06 792L612 792L612 792L612 0L612 0L9.12E-06 0z" /></clipPath><clipPath id="4"><path id="" clip-rule="evenodd" transform="matrix(1 0 0 1 0 0)" d="M9.12E-06 792L612 792L612 792L612 0L612 0L9.12E-06 0z" /></clipPath><clipPath id="5"><path id="" clip-rule="evenodd" transform="matrix(1 0 0 1 0 0)" d="M9.12E-06 792L612 792L612 792L612 0L612 0L9.12E-06 0z" /></clipPath><clipPath id="6"><path id="" clip-rule="evenodd" transform="matrix(1 0 0 1 0 0)" d="M9.12E-06 792L612 792L612 792L612 0L612 0L9.12E-06 0z" /></clipPath><clipPath id="7"><path id="" clip-rule="evenodd" transform="matrix(1 0 0 1 0 0)" d="M9.12E-06 792L612 792L612 792L612 0L612 0L9.12E-06 0z" /></clipPath><clipPath id="8"><path id="" clip-rule="evenodd" transform="matrix(1 0 0 1 0 0)" d="M9.12E-06 792L612 792L612 792L612 0L612 0L9.12E-06 0z" /></clipPath><clipPath id="9"><path id="" clip-rule="evenodd" transform="matrix(1 0 0 1 0 0)" d="M9.12E-06 792L612 792L612 792L612 0L612 0L9.12E-06 0z" /></clipPath><clipPath id="10"><path id="" clip-rule="evenodd" transform="matrix(1 0 0 1 0 0)" d="M9.12E-06 792L612 792L612 792L612 0L612 0L9.12E-06 0z" /></clipPath><clipPath id="11"><path id="" clip-rule="evenodd" transform="matrix(1 0 0 1 0 0)" d="M9.12E-06 792L612 792L612 792L612 0L612 0L9.12E-06 0z" /></clipPath><clipPath id="12"><path id="" clip-rule="evenodd" transform="matrix(1 0 0 1 0 0)" d="M9.12E-06 792L612 792L612 792L612 0L612 0L9.12E-06 0z" /></clipPath><clipPath id="13"><path id="" clip-rule="evenodd" transform="matrix(1 0 0 1 0 0)" d="M9.12E-06 792L612 792L612 792L612 0L612 0L9.12E-06 0z" /></clipPath><clipPath id="14"><path id="" clip-rule="evenodd" transform="matrix(1 0 0 1 0 0)" d="M9.12E-06 792L612 792L612 792L612 0L612 0L9.12E-06 0z" /></clipPath><clipPath id="15"><path id="" clip-rule="evenodd" transform="matrix(1 0 0 1 0 0)" d="M9.12E-06 792L612 792L612 792L612 0L612 0L9.12E-06 0z" /></clipPath><clipPath id="16"><path id="" clip-rule="evenodd" transform="matrix(1 0 0 1 0 0)" d="M9.12E-06 792L612 792L612 792L612 0L612 0L9.12E-06 0z" /></clipPath><clipPath id="17"><path id="" clip-rule="evenodd" transform="matrix(1 0 0 1 0 0)" d="M9.12E-06 792L612 792L612 792L612 0L612 0L9.12E-06 0z" /></clipPath><clipPath id="18"><path id="" clip-rule="evenodd" transform="matrix(1 0 0 1 0 0)" d="M9.12E-06 792L612 792L612 792L612 0L612 0L9.12E-06 0z" /></clipPath><clipPath id="19"><path id="" clip-rule="evenodd" transform="matrix(1 0 0 1 0 0)" d="M9.12E-06 792L612 792L612 792L612 0L612 0L9.12E-06 0z" /></clipPath><clipPath id="20"><path id="" clip-rule="evenodd" transform="matrix(1 0 0 1 0 0)" d="M9.12E-06 792L612 792L612 792L612 0L612 0L9.12E-06 0z" /></clipPath><clipPath id="21"><path id="" clip-rule="evenodd" transform="matrix(1 0 0 1 0 0)" d="M9.12E-06 792L612 792L612 792L612 0L612 0L9.12E-06 0z" /></clipPath><clipPath id="22"><path id="" clip-rule="evenodd" transform="matrix(1 0 0 1 0 0)" d="M9.12E-06 792L612 792L612 792L612 0L612 0L9.12E-06 0z" /></clipPath><clipPath id="23"><path id="" clip-rule="evenodd" transform="matrix(1 0 0 1 0 0)" d="M9.12E-06 792L612 792L612 792L612 0L612 0L9.12E-06 0z" /></clipPath><clipPath id="24"><path id="" clip-rule="evenodd" transform="matrix(1 0 0 1 0 0)" d="M9.12E-06 792L612 792L612 792L612 0L612 0L9.12E-06 0z" /></clipPath><clipPath id="25"><path id="" clip-rule="evenodd" transform="matrix(1 0 0 1 0 0)" d="M9.12E-06 792L612 792L612 792L612 0L612 0L9.12E-06 0z" /></clipPath><clipPath id="26"><path id="" clip-rule="evenodd" transform="matrix(1 0 0 1 0 0)" d="M9.12E-06 792L612 792L612 792L612 0L612 0L9.12E-06 0z" /></clipPath><clipPath id="27"><path id="" clip-rule="evenodd" transform="matrix(1 0 0 1 0 0)" d="M9.12E-06 792L612 792L612 792L612 0L612 0L9.12E-06 0z" /></clipPath><clipPath id="28"><path id="" clip-rule="evenodd" transform="matrix(1 0 0 1 0 0)" d="M9.12E-06 792L612 792L612 792L612 0L612 0L9.12E-06 0z" /></clipPath><clipPath id="29"><path id="" clip-rule="evenodd" transform="matrix(1 0 0 1 0 0)" d="M9.12E-06 792L612 792L612 792L612 0L612 0L9.12E-06 0z" /></clipPath><clipPath id="30"><path id="" clip-rule="evenodd" transform="matrix(1 0 0 1 0 0)" d="M9.12E-06 792L612 792L612 792L612 0L612 0L9.12E-06 0z" /></clipPath><clipPath id="31"><path id="" clip-rule="evenodd" transform="matrix(1 0 0 1 0 0)" d="M9.12E-06 792L612 792L612 792L612 0L612 0L9.12E-06 0z" /></clipPath><clipPath id="32"><path id="" clip-rule="evenodd" transform="matrix(1 0 0 1 0 0)" d="M9.12E-06 792L612 792L612 792L612 0L612 0L9.12E-06 0z" /></clipPath><clipPath id="33"><path id="" clip-rule="evenodd" transform="matrix(1 0 0 1 0 0)" d="M9.12E-06 792L612 792L612 792L612 0L612 0L9.12E-06 0z" /></clipPath><clipPath id="34"><path id="" clip-rule="evenodd" transform="matrix(1 0 0 1 0 0)" d="M9.12E-06 792L612 792L612 792L612 0L612 0L9.12E-06 0z" /></clipPath><clipPath id="35"><path id="" clip-rule="evenodd" transform="matrix(1 0 0 1 0 0)" d="M9.12E-06 792L612 792L612 792L612 0L612 0L9.12E-06 0z" /></clipPath><clipPath id="36"><path id="" clip-rule="evenodd" transform="matrix(1 0 0 1 0 0)" d="M9.12E-06 792L612 792L612 792L612 0L612 0L9.12E-06 0z" /></clipPath><clipPath id="37"><path id="" clip-rule="evenodd" transform="matrix(1 0 0 1 0 0)" d="M9.12E-06 792L612 792L612 792L612 0L612 0L9.12E-06 0z" /></clipPath></defs><g transform="matrix(1.3333334 0 0 1.3333334 0 0)"><g clip-path="url(#1)"><path id="1" transform="matrix(1 0 0 -1 0 792)" d="M70.584 691.78L541.534 691.78L541.534 691.78L541.534 720.004L541.534 720.004L70.584 720.004z" stroke="none" fill="#FFFFFF" fill-rule="evenodd" /><g clip-path="url(#2)"></g><g clip-path="url(#3)"></g><g clip-path="url(#4)"></g><path id="19" transform="matrix(1 0 0 -1 0 792)" d="M70.584 677.98L541.534 677.98L541.534 677.98L541.534 691.77997L541.534 691.77997L70.584 691.77997z" stroke="none" fill="#FFFFFF" fill-rule="evenodd" /><g clip-path="url(#5)"></g><g clip-path="url(#6)"></g><g clip-path="url(#7)"></g><g clip-path="url(#8)"></g><path id="96" transform="matrix(1 0 0 -1 0 792)" d="M70.584 664.18L541.534 664.18L541.534 664.18L541.534 677.98L541.534 677.98L70.584 677.98z" stroke="none" fill="#FFFFFF" fill-rule="evenodd" /><g clip-path="url(#9)"></g><path id="174" transform="matrix(1 0 0 -1 0 792)" d="M70.584 650.38L541.534 650.38L541.534 650.38L541.534 664.18L541.534 664.18L70.584 664.18z" stroke="none" fill="#FFFFFF" fill-rule="evenodd" /><g clip-path="url(#10)"></g><g clip-path="url(#11)"></g><path id="249" transform="matrix(1 0 0 -1 0 792)" d="M70.584 636.58L541.534 636.58L541.534 636.58L541.534 650.38L541.534 650.38L70.584 650.38z" stroke="none" fill="#FFFFFF" fill-rule="evenodd" /><g clip-path="url(#12)"></g><path id="335" transform="matrix(1 0 0 -1 0 792)" d="M70.584 622.78L541.534 622.78L541.534 622.78L541.534 636.58L541.534 636.58L70.584 636.58z" stroke="none" fill="#FFFFFF" fill-rule="evenodd" /><g clip-path="url(#13)"></g><path id="419" transform="matrix(1 0 0 -1 0 792)" d="M70.584 608.98L541.534 608.98L541.534 608.98L541.534 622.77997L541.534 622.77997L70.584 622.77997z" stroke="none" fill="#FFFFFF" fill-rule="evenodd" /><g clip-path="url(#14)"></g><g clip-path="url(#15)"></g><path id="498" transform="matrix(1 0 0 -1 0 792)" d="M70.584 595.18L541.534 595.18L541.534 595.18L541.534 608.98L541.534 608.98L70.584 608.98z" stroke="none" fill="#FFFFFF" fill-rule="evenodd" /><g clip-path="url(#16)"></g><g clip-path="url(#17)"></g><path id="510" transform="matrix(1 0 0 -1 0 792)" d="M70.584 566.98L541.534 566.98L541.534 566.98L541.534 595.18L541.534 595.18L70.584 595.18z" stroke="none" fill="#FFFFFF" fill-rule="evenodd" /><g clip-path="url(#18)"></g><g clip-path="url(#19)"></g><g clip-path="url(#20)"></g><path id="524" transform="matrix(1 0 0 -1 0 792)" d="M70.584 553.18L541.534 553.18L541.534 553.18L541.534 566.98L541.534 566.98L70.584 566.98z" stroke="none" fill="#FFFFFF" fill-rule="evenodd" /><g clip-path="url(#21)"></g><g clip-path="url(#22)"></g><path id="607" transform="matrix(1 0 0 -1 0 792)" d="M70.584 539.35L541.534 539.35L541.534 539.35L541.534 553.17395L541.534 553.17395L70.584 553.17395z" stroke="none" fill="#FFFFFF" fill-rule="evenodd" /><g clip-path="url(#23)"></g><g clip-path="url(#24)"></g><g clip-path="url(#25)"></g><g clip-path="url(#26)"></g><g clip-path="url(#27)"></g><g clip-path="url(#28)"></g><path id="682" transform="matrix(1 0 0 -1 0 792)" d="M70.584 525.55L541.534 525.55L541.534 525.55L541.534 539.35L541.534 539.35L70.584 539.35z" stroke="none" fill="#FFFFFF" fill-rule="evenodd" /><g clip-path="url(#29)"></g><path id="771" transform="matrix(1 0 0 -1 0 792)" d="M70.584 511.75L541.534 511.75L541.534 511.75L541.534 525.55L541.534 525.55L70.584 525.55z" stroke="none" fill="#FFFFFF" fill-rule="evenodd" /><g clip-path="url(#30)"></g><path id="849" transform="matrix(1 0 0 -1 0 792)" d="M70.584 497.95L541.534 497.95L541.534 497.95L541.534 511.75L541.534 511.75L70.584 511.75z" stroke="none" fill="#FFFFFF" fill-rule="evenodd" /><g clip-path="url(#31)"></g><g clip-path="url(#32)"></g><path id="935" transform="matrix(1 0 0 -1 0 792)" d="M70.584 484.15L541.534 484.15L541.534 484.15L541.534 497.94998L541.534 497.94998L70.584 497.94998z" stroke="none" fill="#FFFFFF" fill-rule="evenodd" /><g clip-path="url(#33)"></g><path id="1013" transform="matrix(1 0 0 -1 0 792)" d="M70.584 470.35L541.534 470.35L541.534 470.35L541.534 484.15L541.534 484.15L70.584 484.15z" stroke="none" fill="#FFFFFF" fill-rule="evenodd" /><g clip-path="url(#34)"></g><g clip-path="url(#35)"></g><g clip-path="url(#36)"></g><g clip-path="url(#37)"></g></g></g></svg>